<?xml version="1.0" encoding="UTF-8"?>
<svg width="203px" height="199px" viewBox="0 0 203 199" version="1.1" xmlns="http://www.w3.org/2000/svg" xmlns:xlink="http://www.w3.org/1999/xlink">
    <!-- Generator: Sketch 52.6 (67491) - http://www.bohemiancoding.com/sketch -->
    <title>Artboard</title>
    <desc>Created with Sketch.</desc>
    <g id="Artboard" stroke="none" stroke-width="1" fill="none" fill-rule="evenodd">
        <rect id="Rectangle" fill="#000000" x="0" y="0" width="203" height="199" rx="30"></rect>
        <g id="68747470733a2f2f78696d78696d2e6769746875622e696f2f72656163742d6e61746976652d666565646261636b2d7265706f727465722f696d672f6c6f676f2e737667" transform="translate(15.000000, 15.000000)" fill="#FFFFFF">
            <g id="Group" transform="translate(36.943253, 0.988648)">
                <g>
                    <path d="M9.94211808,32.141642 L40.971514,14.2208607 C41.8340722,14.5726936 42.7647271,14.7656343 43.7407798,14.7656343 C47.8038828,14.7656343 51.1179222,11.4515949 51.1179222,7.38849186 C51.1179222,3.32538881 47.8038828,0.0113494499 43.7407798,0.0113494499 C39.6776767,0.0113494499 36.3863363,3.30268991 36.3636374,7.35444351 L4.31279095,25.8653962 C1.69106803,27.3862225 0.0567472493,30.2122355 0.0567472493,33.2538881 L0.0567472493,72.659178 C0.0567472493,75.6894812 1.69106803,78.5268436 4.3241404,80.0476699 L40.415391,100.88526 C40.9147668,101.168996 41.4822393,101.327888 42.0497118,101.327888 C42.6171842,101.327888 43.1846567,101.180346 43.6840325,100.88526 C44.705483,100.295088 45.3183533,99.2282402 45.3183533,98.0478974 L45.3183533,96.9923986 C45.3183533,95.2672822 44.3876984,93.6670097 42.9009205,92.8044516 L9.94211808,73.7714241 C8.93201704,73.1812527 8.29644785,72.0917055 8.29644785,70.9227122 L8.29644785,34.9903539 C8.29644785,33.8213606 8.93201704,32.720464 9.94211808,32.141642 Z M39.3144943,5.66337548 C40.0068108,3.88151185 41.7319272,2.63307237 43.7521292,2.63307237 C44.0018171,2.63307237 44.2401556,2.65577127 44.478494,2.68981962 C44.7735797,2.73521742 45.057316,2.80331412 45.3183533,2.90545917 C47.1796631,3.55237781 48.5075487,5.32289199 48.5075487,7.39984131 C48.5075487,9.68108074 46.8959268,11.5991378 44.7508808,12.0531158 C44.4330962,12.1212125 44.0926127,12.1552608 43.7521292,12.1552608 C41.1190569,12.1552608 38.9853603,10.0215642 38.9853603,7.38849186 C38.9853603,6.77562157 39.1102042,6.19679963 39.3144943,5.66337548 Z" id="Shape" fill-rule="nonzero"></path>
                    <path d="M95.8574536,28.1239368 L59.7435041,7.27499736 C59.2327789,6.97991167 58.6653064,6.83236882 58.0864844,6.83236882 C57.5076625,6.83236882 56.94019,6.99126112 56.4294647,7.27499736 C55.3966648,7.87651821 54.7724451,8.94336649 54.7724451,10.1464082 L54.7724451,11.6104872 C54.7724451,13.0405179 55.5442076,14.3684035 56.7812977,15.0834189 L90.2281264,34.3888331 C91.2041791,34.9449561 91.8057,35.9891055 91.8057,37.1127011 L91.8057,73.2039516 C91.8057,74.3275472 91.2041791,75.3716966 90.2281264,75.9278196 L59.993192,92.9519944 C58.983091,92.4299197 57.8367965,92.134834 56.6337548,92.134834 C52.5706518,92.134834 49.2566124,95.4488734 49.2566124,99.5119764 C49.2566124,103.575079 52.5706518,106.889119 56.6337548,106.889119 C60.322326,106.889119 63.3866775,104.1766 63.9314511,100.635572 L95.868803,82.1927159 C98.4564776,80.6945885 100.05675,77.9253228 100.05675,74.9404175 L100.05675,35.3762352 C100.045401,32.3913299 98.4451281,29.6107147 95.8574536,28.1239368 Z M59.9250953,102.95086 C59.3689722,103.484284 58.6993547,103.881515 57.9389416,104.097154 C57.5190119,104.221998 57.0763834,104.278745 56.6224054,104.278745 C56.5770076,104.278745 56.5202603,104.278745 56.4748625,104.278745 C53.9098869,104.199299 51.8556364,102.099651 51.8556364,99.5233259 C51.8556364,96.8902535 53.989333,94.7565569 56.6224054,94.7565569 C56.8720933,94.7565569 57.1217812,94.7792558 57.3601196,94.8133042 C59.641359,95.1651371 61.3891743,97.1399414 61.3891743,99.5233259 C61.3891743,100.87391 60.8330513,102.088302 59.9250953,102.95086 Z" id="Shape" fill-rule="nonzero"></path>
                    <path d="M71.546932,59.2441283 L15.6508914,74.0665098 C14.6748387,74.3275472 13.7441838,72.5002857 14.2889574,71.3880397 L15.5714452,68.7436178 C16.5928957,66.6326202 18.1477703,65.2252884 19.9863812,64.737262 L75.4738416,50.028375 C76.4498943,49.7673377 77.3805492,51.5945991 76.8357756,52.7068452 L75.3376482,55.8165944 C74.4523911,57.621157 73.1245055,58.8355481 71.546932,59.2441283 Z" id="Path"></path>
                    <path d="M71.9555122,72.6705275 L37.3510395,81.840883 C36.7495187,81.9997753 35.9777561,80.1384655 36.2160945,79.0943161 L36.7949165,76.6428349 C37.2488945,74.6793801 38.1228021,73.4536395 39.2690965,73.1585538 L73.6238813,64.056295 C74.2254021,63.8974027 74.9971647,65.7587125 74.7588263,66.8028619 L74.0892087,69.6856222 C73.6806285,71.3653408 72.9315648,72.4094901 71.9555122,72.6705275 Z" id="Path"></path>
                    <path d="M63.0007962,37.3964373 L28.3963236,46.5667928 C27.7948027,46.7256851 27.0230401,44.8643753 27.2613786,43.8202259 L27.8402005,41.3687448 C28.2941785,39.4052899 29.1680862,38.1795493 30.3143806,37.8844637 L64.6691653,28.7822049 C65.2706862,28.6233126 66.0424488,30.4846223 65.8041103,31.5287717 L65.1344928,34.411532 C64.7145631,36.0912506 63.9768489,37.1354 63.0007962,37.3964373 Z" id="Path"></path>
                    <path d="M81.6025445,44.1607094 L25.7178534,58.9717415 C24.7418007,59.2327789 23.8111458,57.4055174 24.3559194,56.2932713 L25.6384072,53.6488495 C26.6598577,51.5378518 28.2147324,50.1305201 30.0533432,49.6424937 L85.5408036,34.9336067 C86.5168563,34.6725693 87.4475112,36.4998308 86.9027376,37.6120769 L85.4046102,40.7218261 C84.5193532,42.5377381 83.1914675,43.7407798 81.6025445,44.1607094 Z" id="Path"></path>
                </g>
            </g>
            <g id="Group" transform="translate(0.305551, 128.000009)" fill-rule="nonzero">
                <path d="M27.6030657,24.8700889 L35.8566556,37.4964417 C36.2574922,38.1523562 36.2757121,38.8082706 35.9113152,39.464185 C35.7655564,39.7557026 35.5378084,39.9925605 35.228071,40.174759 C34.9183336,40.3569574 34.5994863,40.4480567 34.2715291,40.4480567 L29.2975113,40.4480567 C28.9695541,40.4480567 28.6598167,40.3660674 28.3682992,40.2020888 C28.0767817,40.0381102 27.8581435,39.8285819 27.7123848,39.5735041 L19.4041353,26.4005559 L9.67473788,26.4005559 L9.67473788,38.5349729 C9.67473788,39.0451286 9.4834295,39.4915148 9.10081275,39.8741315 C8.718196,40.2567483 8.27180979,40.4480567 7.76165412,40.4480567 L3.60752938,40.4480567 C3.09737371,40.4480567 2.6509875,40.2567483 2.26837075,39.8741315 C1.88575399,39.4915148 1.69444562,39.0451286 1.69444562,38.5349729 L1.69444562,20.5519856 C1.69444562,20.0418299 1.88575399,19.5954437 2.26837075,19.2128269 C2.6509875,18.8302102 3.09737371,18.6389018 3.60752938,18.6389018 L20.4426665,18.6389018 C23.6493593,18.6389018 25.7810812,17.7279095 26.8378322,15.905925 C27.2022291,15.3228899 27.3844276,14.4847771 27.3844276,13.3915863 C27.3844276,11.6789209 26.8196124,10.3306523 25.6899819,9.34678066 C24.5239118,8.29002963 22.8476861,7.76165412 20.6613046,7.76165412 L3.60752938,7.76165412 C3.09737371,7.76165412 2.6509875,7.57034574 2.26837075,7.18772899 C1.88575399,6.80511224 1.69444562,6.35872603 1.69444562,5.84857036 L1.69444562,1.91308376 C1.69444562,1.40292809 1.88575399,0.956541881 2.26837075,0.573925129 C2.6509875,0.191308376 3.09737371,-2.42737102e-15 3.60752938,-2.42737102e-15 L21.1532405,-2.42737102e-15 C25.4166843,-2.42737102e-15 28.8237953,1.20250979 31.3745737,3.60752938 C34.0346711,6.01254897 35.3647198,9.27390128 35.3647198,13.3915863 C35.3647198,16.0516838 34.7816848,18.3200545 33.6156147,20.1966986 C32.4495446,22.0733426 30.7550989,23.5036005 28.5322778,24.4874721 L27.6030657,24.8700889 Z M80.7758624,-3.94430453e-31 C81.286018,-3.94430453e-31 81.7324043,0.191308376 82.115021,0.573925129 C82.4976378,0.956541881 82.6889461,1.40292809 82.6889461,1.91308376 L82.6889461,38.5349729 C82.6889461,39.0451286 82.4976378,39.4915148 82.115021,39.8741315 C81.7324043,40.2567483 81.286018,40.4480567 80.7758624,40.4480567 L75.9658232,40.4480567 C75.3099088,40.4480567 74.7815333,40.1929788 74.3806967,39.6828232 L47.6521835,3.06093402 C47.4335454,2.76941649 47.3060065,2.44145928 47.2695668,2.07706237 C47.2331271,1.71266546 47.2968965,1.3664884 47.4608752,1.03853118 C47.6248538,0.710573969 47.8617117,0.455496134 48.1714491,0.27329768 C48.4811865,0.0910992267 48.8182536,-4.85474203e-15 49.1826505,-2.42737102e-15 L53.9926897,-2.42737102e-15 C54.2842072,-2.42737102e-15 54.5757248,0.0637694587 54.8672423,0.191308376 C55.1587598,0.318847294 55.377398,0.51015567 55.5231567,0.765233505 L74.7086539,26.8378322 L74.7086539,1.91308376 C74.7086539,1.40292809 74.8908523,0.956541881 75.2552492,0.573925129 C75.6196461,0.191308376 76.0751423,-2.42737102e-15 76.6217376,-2.42737102e-15 L80.7758624,-2.42737102e-15 Z M53.3367753,26.509875 C53.8469309,26.509875 54.2933172,26.6920734 54.6759339,27.0564703 C55.0585507,27.4208673 55.249859,27.8763634 55.249859,28.4229587 L55.249859,38.5349729 C55.249859,39.0451286 55.0585507,39.4915148 54.6759339,39.8741315 C54.2933172,40.2567483 53.8469309,40.4480567 53.3367753,40.4480567 L49.1826505,40.4480567 C48.6724949,40.4480567 48.2261087,40.2567483 47.8434919,39.8741315 C47.4608752,39.4915148 47.2695668,39.0451286 47.2695668,38.5349729 L47.2695668,28.4229587 C47.2695668,27.8763634 47.4608752,27.4208673 47.8434919,27.0564703 C48.2261087,26.6920734 48.6724949,26.509875 49.1826505,26.509875 L53.3367753,26.509875 Z M122.306178,16.725818 C122.852773,16.725818 123.317379,16.9171264 123.699996,17.2997432 C124.082613,17.6823599 124.273921,18.146966 124.273921,18.6935613 L124.273921,22.738367 C124.273921,23.2485227 124.082613,23.6949089 123.699996,24.0775256 C123.317379,24.4601424 122.852773,24.6514508 122.306178,24.6514508 L104.323191,24.6514508 L104.323191,38.644292 C104.323191,39.1544477 104.140992,39.6008339 103.776595,39.9834506 C103.412198,40.3660674 102.956702,40.5573757 102.410107,40.5573757 L98.255982,40.5573757 C97.7458263,40.5573757 97.2994401,40.3660674 96.9168234,39.9834506 C96.5342066,39.6008339 96.3428982,39.1544477 96.3428982,38.644292 L96.3428982,18.6935613 C96.3428982,18.146966 96.5342066,17.6823599 96.9168234,17.2997432 C97.2994401,16.9171264 97.7458263,16.725818 98.255982,16.725818 L122.306178,16.725818 Z M124.765857,-2.06924968e-16 C125.276013,-2.06924968e-16 125.722399,0.191308376 126.105016,0.573925129 C126.487632,0.956541881 126.678941,1.40292809 126.678941,1.91308376 L126.678941,5.90322989 C126.678941,6.44982525 126.487632,6.91443131 126.105016,7.29704806 C125.722399,7.67966481 125.276013,7.87097319 124.765857,7.87097319 L98.255982,7.87097319 C97.7458263,7.87097319 97.2994401,7.67966481 96.9168234,7.29704806 C96.5342066,6.91443131 96.3428982,6.44982525 96.3428982,5.90322989 L96.3428982,1.91308376 C96.3428982,1.40292809 96.5342066,0.956541881 96.9168234,0.573925129 C97.2994401,0.191308376 97.7458263,-2.06924968e-16 98.255982,-2.06924968e-16 L124.765857,-2.06924968e-16 Z M163.125919,24.8700889 L171.379509,37.4964417 C171.780346,38.1523562 171.798566,38.8082706 171.434169,39.464185 C171.28841,39.7557026 171.060662,39.9925605 170.750925,40.174759 C170.441187,40.3569574 170.12234,40.4480567 169.794383,40.4480567 L164.820365,40.4480567 C164.492408,40.4480567 164.18267,40.3660674 163.891153,40.2020888 C163.599635,40.0381102 163.380997,39.8285819 163.235238,39.5735041 L154.926989,26.4005559 L145.197592,26.4005559 L145.197592,38.5349729 C145.197592,39.0451286 145.006283,39.4915148 144.623666,39.8741315 C144.24105,40.2567483 143.794663,40.4480567 143.284508,40.4480567 L139.130383,40.4480567 C138.620227,40.4480567 138.173841,40.2567483 137.791224,39.8741315 C137.408608,39.4915148 137.217299,39.0451286 137.217299,38.5349729 L137.217299,20.5519856 C137.217299,20.0418299 137.408608,19.5954437 137.791224,19.2128269 C138.173841,18.8302102 138.620227,18.6389018 139.130383,18.6389018 L155.96552,18.6389018 C159.172213,18.6389018 161.303935,17.7279095 162.360686,15.905925 C162.725083,15.3228899 162.907281,14.4847771 162.907281,13.3915863 C162.907281,11.6789209 162.342466,10.3306523 161.212836,9.34678066 C160.046766,8.29002963 158.37054,7.76165412 156.184158,7.76165412 L139.130383,7.76165412 C138.620227,7.76165412 138.173841,7.57034574 137.791224,7.18772899 C137.408608,6.80511224 137.217299,6.35872603 137.217299,5.84857036 L137.217299,1.91308376 C137.217299,1.40292809 137.408608,0.956541881 137.791224,0.573925129 C138.173841,0.191308376 138.620227,-2.42737102e-15 139.130383,-2.42737102e-15 L156.676094,-2.42737102e-15 C160.939538,-2.42737102e-15 164.346649,1.20250979 166.897427,3.60752938 C169.557525,6.01254897 170.887573,9.27390128 170.887573,13.3915863 C170.887573,16.0516838 170.304538,18.3200545 169.138468,20.1966986 C167.972398,22.0733426 166.277953,23.5036005 164.055131,24.4874721 L163.125919,24.8700889 Z" id="Shape"></path>
            </g>
        </g>
    </g>
</svg>